<svg xmlns="http://www.w3.org/2000/svg" width="256" height="256" viewBox="0 0 256 256">
  <defs>
    <linearGradient id="bg" x1="0%" y1="0%" x2="100%" y2="100%">
      <stop offset="0%" style="stop-color:#e8e4dd"/>
      <stop offset="100%" style="stop-color:#d4cfc6"/>
    </linearGradient>
    <linearGradient id="accent" x1="0%" y1="0%" x2="0%" y2="100%">
      <stop offset="0%" style="stop-color:#7c8e9e"/>
      <stop offset="100%" style="stop-color:#5a6d7d"/>
    </linearGradient>
  </defs>
  <rect width="256" height="256" rx="48" fill="url(#bg)"/>
  <!-- Book shape -->
  <path d="M68 56 L128 72 L188 56 L188 176 L128 192 L68 176 Z" fill="none" stroke="url(#accent)" stroke-width="4" stroke-linejoin="round"/>
  <line x1="128" y1="72" x2="128" y2="192" stroke="url(#accent)" stroke-width="3"/>
  <!-- Text lines left -->
  <line x1="84" y1="96" x2="118" y2="102" stroke="#7c8e9e" stroke-width="2.5" stroke-linecap="round" opacity=".5"/>
  <line x1="84" y1="112" x2="114" y2="117" stroke="#7c8e9e" stroke-width="2.5" stroke-linecap="round" opacity=".4"/>
  <line x1="84" y1="128" x2="110" y2="132" stroke="#7c8e9e" stroke-width="2.5" stroke-linecap="round" opacity=".3"/>
  <!-- Text lines right -->
  <line x1="138" y1="102" x2="172" y2="96" stroke="#b09070" stroke-width="2.5" stroke-linecap="round" opacity=".5"/>
  <line x1="138" y1="117" x2="168" y2="112" stroke="#b09070" stroke-width="2.5" stroke-linecap="round" opacity=".4"/>
  <line x1="138" y1="132" x2="164" y2="128" stroke="#b09070" stroke-width="2.5" stroke-linecap="round" opacity=".3"/>
  <!-- Quill/pen -->
  <path d="M162 40 Q172 60 158 78 Q164 70 176 48 Q168 42 162 40 Z" fill="#b09070" opacity=".7"/>
  <!-- LM text -->
  <text x="128" y="230" text-anchor="middle" font-family="Georgia, serif" font-size="24" font-weight="600" fill="#5a6d7d" letter-spacing="6">LM</text>
</svg>
